<svg width="1280" height="420" viewBox="0 0 1280 420" fill="none" xmlns="http://www.w3.org/2000/svg">
  <defs>
    <radialGradient id="core" cx="50%" cy="50%" r="50%">
      <stop offset="0%" stop-color="#F8FAFC"/>
      <stop offset="18%" stop-color="#7DD3FC"/>
      <stop offset="48%" stop-color="#2563EB"/>
      <stop offset="100%" stop-color="#020617" stop-opacity="0"/>
    </radialGradient>
    <linearGradient id="title" x1="210" y1="120" x2="1040" y2="260">
      <stop stop-color="#E0F2FE"/>
      <stop offset="0.45" stop-color="#F8FAFC"/>
      <stop offset="1" stop-color="#A7F3D0"/>
    </linearGradient>
    <linearGradient id="grid" x1="0" y1="0" x2="1280" y2="420">
      <stop stop-color="#38BDF8" stop-opacity="0.26"/>
      <stop offset="1" stop-color="#22C55E" stop-opacity="0.08"/>
    </linearGradient>
    <filter id="glow" x="-50%" y="-50%" width="200%" height="200%">
      <feGaussianBlur stdDeviation="9" result="blur"/>
      <feMerge>
        <feMergeNode in="blur"/>
        <feMergeNode in="SourceGraphic"/>
      </feMerge>
    </filter>
  </defs>

  <rect width="1280" height="420" fill="#020617"/>
  <rect width="1280" height="420" fill="url(#grid)" opacity="0.55"/>

  <g opacity="0.22">
    <path d="M0 338C174 245 325 238 453 301C602 375 759 377 927 304C1042 254 1160 259 1280 320" stroke="#93C5FD" stroke-width="1.2"/>
    <path d="M0 286C146 213 293 196 443 241C625 296 759 286 925 220C1062 166 1180 183 1280 230" stroke="#34D399" stroke-width="1"/>
    <path d="M0 238C147 175 305 154 470 180C649 209 798 182 947 125C1082 73 1191 89 1280 128" stroke="#38BDF8" stroke-width="0.8"/>
  </g>

  <g transform="translate(640 210)" filter="url(#glow)">
    <circle r="112" fill="url(#core)" opacity="0.95"/>
    <ellipse rx="285" ry="74" stroke="#BAE6FD" stroke-width="2" opacity="0.75"/>
    <ellipse rx="322" ry="102" stroke="#6EE7B7" stroke-width="1.6" opacity="0.46" transform="rotate(-11)"/>
    <ellipse rx="242" ry="156" stroke="#93C5FD" stroke-width="1.3" opacity="0.35" transform="rotate(28)"/>
    <circle cx="242" cy="-38" r="6" fill="#F8FAFC"/>
    <circle cx="-214" cy="48" r="4" fill="#A7F3D0"/>
    <circle cx="95" cy="144" r="5" fill="#7DD3FC"/>
  </g>

  <g opacity="0.78">
    <circle cx="95" cy="72" r="1.8" fill="#E0F2FE"/>
    <circle cx="182" cy="316" r="1.5" fill="#A7F3D0"/>
    <circle cx="270" cy="104" r="1.2" fill="#E0F2FE"/>
    <circle cx="1036" cy="76" r="1.8" fill="#E0F2FE"/>
    <circle cx="1120" cy="312" r="1.4" fill="#A7F3D0"/>
    <circle cx="1198" cy="146" r="1.2" fill="#E0F2FE"/>
  </g>

  <text x="640" y="178" text-anchor="middle"
        font-family="Inter, Segoe UI, Arial, sans-serif" font-size="56" font-weight="800"
        letter-spacing="4" fill="url(#title)">KNOWLEDGE GRAVITY</text>
  <text x="640" y="230" text-anchor="middle"
        font-family="Inter, Segoe UI, Arial, sans-serif" font-size="26" font-weight="650"
        letter-spacing="10" fill="#BAE6FD">NOTE FIELD ANALYZER</text>
  <text x="640" y="280" text-anchor="middle"
        font-family="Consolas, ui-monospace, SFMono-Regular, monospace" font-size="18"
        fill="#D1FAE5">center notes · orphan islands · noisy fragments · cleanup gravity</text>
</svg>
